<svg width="54" height="55" viewBox="0 0 54 55" fill="none" xmlns="http://www.w3.org/2000/svg">
<g id="local_cafe_24px">
<path id="icon/maps/local_cafe_24px" fill-rule="evenodd" clip-rule="evenodd" d="M8.99999 7.34363H45C47.4975 7.34363 49.5 9.34613 49.5 11.8436V18.5936C49.5 21.0911 47.4975 23.0936 45 23.0936H40.5V29.8436C40.5 34.8161 36.4725 38.8436 31.5 38.8436H18C13.0275 38.8436 8.99999 34.8161 8.99999 29.8436V7.34363ZM36 29.8436V11.8436H13.5V29.8436C13.5 32.3186 15.525 34.3436 18 34.3436H31.5C33.975 34.3436 36 32.3186 36 29.8436ZM40.5 18.5936V11.8436H45V18.5936H40.5ZM4.5 43.3436H45V47.8436H4.5V43.3436Z" fill="black" fill-opacity="0.54"/>
</g>
</svg>
