<svg width="267" height="73" viewBox="0 0 267 73" fill="none" xmlns="http://www.w3.org/2000/svg">
<g clip-path="url(#clip0)">
<path d="M2.35819 19.5974C-2.62642 21.7604 1.215 45.3022 5.36884 56.1173C8.04055 63.0735 18.5724 72.3484 31.2605 72.3484C42.0989 72.3484 51.8736 61.2858 53.5395 56.1173C55.8052 49.0875 63.4544 24.4642 58.3565 19.5974C53.2586 14.7306 49.2187 34.703 43.5544 28.2139C37.89 21.7248 33.7922 2.09445 28.5356 10.0754C23.3564 17.939 25.1887 20.6433 19.5244 28.2139C13.86 35.7845 8.58895 16.8936 2.35819 19.5974Z" fill="#F2E7FE"/>
<path d="M90.1125 42.7864C88.7306 42.579 87.4008 42.4494 86.1231 42.3975C82.2642 42.2938 79.3178 43.6159 77.284 46.3638L72.5124 73H59.6448L66.9977 30.9265L79.0049 30.8876L78.0271 36.4092C80.791 32.1578 84.0502 30.0321 87.8049 30.0321C88.874 30.0321 90.2038 30.2136 91.7943 30.5765L90.1125 42.7864Z" fill="#190078"/>
<path d="M109.707 73.7777C105.927 73.7518 102.55 72.8704 99.5774 71.1335C96.6311 69.3707 94.4017 66.9339 92.8894 63.8231C91.3771 60.6864 90.7774 57.2386 91.0903 53.4797L91.2076 52.391C91.9116 45.4694 94.3235 39.9996 98.4432 35.9815C102.589 31.9375 107.66 29.9932 113.658 30.1488C117.282 30.2006 120.385 31.1209 122.966 32.9096C125.547 34.6724 127.438 37.1221 128.637 40.2589C129.837 43.3697 130.228 46.8693 129.811 50.7578L129.067 56.085H103.88C103.932 58.2885 104.558 60.0772 105.757 61.4512C106.956 62.8251 108.703 63.5509 110.998 63.6287C114.727 63.7324 118.077 62.3066 121.05 59.3514L126.447 66.4673C124.856 68.7226 122.627 70.4984 119.759 71.7945C116.917 73.0648 113.801 73.7258 110.411 73.7777H109.707ZM112.836 40.22C111.011 40.1681 109.42 40.7384 108.065 41.9309C106.735 43.1234 105.575 45.1195 104.584 47.9192H117.451L117.686 46.7915C117.842 45.8842 117.869 45.0287 117.764 44.2251C117.321 41.6328 115.678 40.2977 112.836 40.22Z" fill="#190078"/>
<path d="M155.233 73C154.868 71.989 154.685 70.7187 154.685 69.1893C151.791 72.3519 148.336 73.8814 144.321 73.7777C140.644 73.7258 137.594 72.5074 135.169 70.1225C132.744 67.7375 131.61 64.8471 131.766 61.4512C131.896 56.8887 133.813 53.389 137.515 50.9522C141.218 48.4895 146.276 47.2581 152.691 47.2581L156.993 47.3359L157.462 44.9639L157.619 42.903C157.514 40.544 156.328 39.3256 154.06 39.2478C151.244 39.196 149.51 40.7384 148.858 43.8752L135.951 43.914C136.081 41.0884 137.007 38.6387 138.728 36.5648C140.449 34.465 142.782 32.8578 145.729 31.7431C148.701 30.6024 151.856 30.071 155.194 30.1488C158.401 30.2265 161.204 30.9005 163.603 32.1708C166.028 33.4151 167.84 35.1649 169.039 37.4203C170.239 39.6497 170.695 42.229 170.408 45.1584L167.24 64.9508L167.044 67.3617C166.94 69.28 167.188 70.9132 167.788 72.2612L167.748 73H155.233ZM147.88 64.5231C150.513 64.6268 152.821 63.4732 154.803 61.0623L156.093 54.2963L152.769 54.2574C150.709 54.3093 148.936 54.9185 147.45 56.085C145.963 57.2257 145.09 58.794 144.829 60.7901C144.699 61.853 144.894 62.7344 145.416 63.4343C145.963 64.1083 146.785 64.4712 147.88 64.5231Z" fill="#190078"/>
<path d="M192.584 63.7065C194.435 63.7583 195.883 63.2528 196.926 62.19C197.969 61.1012 198.633 59.7013 198.92 57.9904L210.967 57.9515C210.81 61.0364 209.884 63.7972 208.19 66.234C206.521 68.6708 204.252 70.5632 201.384 71.9112C198.542 73.2333 195.491 73.8554 192.232 73.7777C186.6 73.674 182.259 71.6649 179.208 67.7505C176.157 63.8102 174.919 58.7292 175.493 52.5076L175.61 51.5744C176.079 47.323 177.279 43.5641 179.208 40.2977C181.138 37.0055 183.667 34.465 186.796 32.6763C189.951 30.8876 193.471 30.0451 197.356 30.1488C202.284 30.2525 206.169 31.8208 209.011 34.8538C211.879 37.861 213.261 41.9309 213.157 47.0637L201.11 47.0248C201.241 42.566 199.637 40.2977 196.3 40.22C191.763 40.0644 189.155 43.8622 188.477 51.6133L188.125 55.5795L188.086 57.0572C188.086 61.4123 189.586 63.6287 192.584 63.7065Z" fill="#190078"/>
<path d="M232.36 35.5149C235.515 31.8597 239.153 30.058 243.272 30.1099C247.523 30.2136 250.665 31.756 252.698 34.7372C254.758 37.7184 255.501 41.7624 254.928 46.8693L250.547 73H237.68L242.099 46.7138C242.203 45.8324 242.23 45.0028 242.177 44.2251C241.995 41.6587 240.561 40.3366 237.875 40.2589C235.555 40.207 233.495 41.0495 231.696 42.7864L226.298 73H213.431L223.873 13.2727H236.741L232.36 35.5149Z" fill="#190078"/>
<path d="M113.499 25.8939C115.727 25.8939 120.815 17.7723 120.078 15.8671C119.34 13.962 115.143 12.6212 113.499 12.6212C111.854 12.6212 108.143 13.4973 106.919 15.8671C105.937 17.7699 111.27 25.8939 113.499 25.8939Z" fill="#FCA33B"/>
</g>
<defs>
<clipPath id="clip0">
<rect width="267" height="73" fill="white"/>
</clipPath>
</defs>
</svg>
