<svg width="269" height="74" viewBox="0 0 269 74" fill="none" xmlns="http://www.w3.org/2000/svg">
<g clip-path="url(#clip0)">
<path d="M2.37585 19.8659C-2.64609 22.0585 1.22411 45.9228 5.40906 56.8861C8.10078 63.9375 18.7116 73.3395 31.4947 73.3395C42.4143 73.3395 52.2622 62.1253 53.9405 56.8861C56.2232 49.7599 63.9297 24.7994 58.7937 19.8659C53.6576 14.9324 49.5874 35.1784 43.8806 28.6004C38.1739 22.0224 34.0453 2.12316 28.7494 10.2134C23.5313 18.1847 25.3774 20.9261 19.6706 28.6004C13.9639 36.2747 8.65329 17.1251 2.37585 19.8659Z" fill="#F2E7FE"/>
<path d="M90.7875 43.3725C89.3952 43.1623 88.0555 43.0309 86.7683 42.9783C82.8804 42.8732 79.9119 44.2134 77.8629 46.9989L73.0556 74H60.0916L67.4996 31.3501L79.5967 31.3107L78.6116 36.908C81.3961 32.5983 84.6798 30.4435 88.4626 30.4435C89.5397 30.4435 90.8794 30.6275 92.4819 30.9954L90.7875 43.3725Z" fill="white"/>
<path d="M110.529 74.7883C106.72 74.7621 103.318 73.8686 100.323 72.1079C97.3549 70.321 95.1088 67.8508 93.5852 64.6974C92.0616 61.5177 91.4574 58.0227 91.7726 54.2123L91.8908 53.1086C92.6001 46.0923 95.03 40.5476 99.1806 36.4744C103.357 32.375 108.467 30.4041 114.509 30.5618C118.16 30.6143 121.286 31.5472 123.887 33.3604C126.488 35.1474 128.392 37.6307 129.601 40.8104C130.809 43.9638 131.203 47.5113 130.783 51.4531L130.034 56.8533H104.658C104.71 59.087 105.341 60.9002 106.549 62.293C107.758 63.6857 109.518 64.4215 111.829 64.5003C115.586 64.6055 118.962 63.1601 121.956 60.1644L127.394 67.3778C125.792 69.664 123.546 71.4641 120.656 72.778C117.793 74.0657 114.653 74.7358 111.238 74.7883H110.529ZM113.681 40.7709C111.843 40.7184 110.24 41.2965 108.874 42.5053C107.534 43.7141 106.365 45.7376 105.367 48.5756H118.331L118.568 47.4325C118.725 46.5128 118.751 45.6456 118.646 44.8309C118.2 42.2031 116.545 40.8498 113.681 40.7709Z" fill="white"/>
<path d="M156.396 74C156.028 72.9751 155.844 71.6875 155.844 70.1371C152.928 73.343 149.447 74.8934 145.402 74.7883C141.698 74.7358 138.624 73.5007 136.181 71.0831C133.738 68.6655 132.595 65.7354 132.753 62.293C132.884 57.668 134.815 54.1204 138.546 51.6502C142.276 49.1537 147.372 47.9055 153.834 47.9055L158.169 47.9844L158.642 45.5799L158.799 43.4908C158.694 41.0994 157.499 39.8643 155.214 39.7855C152.376 39.7329 150.629 41.2965 149.973 44.4762L136.969 44.5156C137.101 41.6513 138.033 39.168 139.767 37.0657C141.501 34.9371 143.852 33.3079 146.82 32.1779C149.815 31.0216 152.994 30.4829 156.356 30.5618C159.587 30.6406 162.411 31.3238 164.828 32.6115C167.271 33.8729 169.097 35.6466 170.305 37.9329C171.514 40.1928 171.973 42.8075 171.685 45.777L168.493 65.8405L168.296 68.2844C168.191 70.229 168.44 71.8846 169.044 73.251L169.005 74H156.396ZM148.988 65.4069C151.641 65.5121 153.966 64.3427 155.962 61.8988L157.263 55.0401L153.913 55.0007C151.838 55.0533 150.052 55.6708 148.554 56.8533C147.057 58.0096 146.177 59.5994 145.914 61.6229C145.783 62.7003 145.98 63.5937 146.505 64.3033C147.057 64.9865 147.884 65.3544 148.988 65.4069Z" fill="white"/>
<path d="M194.027 64.5792C195.892 64.6317 197.35 64.1193 198.401 63.0419C199.451 61.9382 200.121 60.5192 200.41 58.7848L212.547 58.7454C212.389 61.8725 211.457 64.6711 209.749 67.1413C208.068 69.6115 205.782 71.5298 202.893 72.8963C200.029 74.2365 196.956 74.8672 193.672 74.7883C187.998 74.6832 183.624 72.6466 180.55 68.6786C177.477 64.6843 176.229 59.5337 176.807 53.2269L176.925 52.2809C177.398 47.9712 178.607 44.1608 180.55 40.8498C182.494 37.5124 185.043 34.9371 188.195 33.1239C191.374 31.3107 194.92 30.4567 198.834 30.5618C203.799 30.6669 207.713 32.2567 210.577 35.3313C213.466 38.3796 214.858 42.5053 214.753 47.7084L202.617 47.669C202.748 43.1491 201.133 40.8498 197.77 40.7709C193.199 40.6133 190.572 44.4631 189.889 52.3203L189.535 56.3409L189.495 57.8388C189.495 62.2535 191.006 64.5003 194.027 64.5792Z" fill="white"/>
<path d="M234.101 36.0014C237.28 32.2961 240.944 30.4698 245.095 30.5224C249.377 30.6275 252.542 32.191 254.591 35.2131C256.666 38.2351 257.415 42.3345 256.837 47.5113L252.424 74H239.46L243.913 47.3537C244.018 46.4602 244.044 45.6193 243.991 44.8309C243.808 42.2294 242.363 40.8892 239.657 40.8104C237.319 40.7578 235.244 41.6118 233.431 43.3725L227.993 74H215.029L225.55 13.4545H238.514L234.101 36.0014Z" fill="white"/>
<path d="M114.349 26.2486C116.594 26.2486 121.72 18.0157 120.977 16.0845C120.234 14.1533 116.006 12.794 114.349 12.794C112.692 12.794 108.953 13.6822 107.72 16.0845C106.731 18.0132 112.103 26.2486 114.349 26.2486Z" fill="#FCA33B"/>
</g>
<defs>
<clipPath id="clip0">
<rect width="269" height="74" fill="white"/>
</clipPath>
</defs>
</svg>
